<svg xmlns="http://www.w3.org/2000/svg" width="143.827" height="200" viewBox="0 0 143.827 200"><path d="M3069.488,300.029a11.6,11.6,0,0,0-11.257,11.591,10.72,10.72,0,0,0,.153,1.5h-14.739a7.106,7.106,0,1,0,0,14.212v.015h52.363a7.115,7.115,0,0,0,7.105-7.106,6.866,6.866,0,0,0-.146-1.434,7.118,7.118,0,0,0-6.959-5.687H3081.27a10.719,10.719,0,0,0,.153-1.5,11.6,11.6,0,0,0-11.935-11.591ZM3009.421,318.8a11.506,11.506,0,0,0-11.506,11.506V488.515a11.509,11.509,0,0,0,11.506,11.509h120.815a11.509,11.509,0,0,0,11.506-11.509V330.309a11.509,11.509,0,0,0-11.506-11.506h-18.289c.045.479.146.943.146,1.434a16.1,16.1,0,0,1-16.085,16.086h-52.363a16.1,16.1,0,0,1-16.08-16.086c0-.491.1-.955.147-1.434Zm4.936,33.976H3125.3a2.873,2.873,0,0,1,2.873,2.876V484.546a2.874,2.874,0,0,1-2.873,2.877H3014.357a2.873,2.873,0,0,1-2.876-2.877V355.655a2.876,2.876,0,0,1,2.876-2.876Zm35.345,15.579a4.491,4.491,0,0,0-3.293,1.587l-9.9,11.727-6.094-7.447a4.49,4.49,0,1,0-6.95,5.687L3036.4,395.72l16.875-19.983a4.49,4.49,0,0,0-3.57-7.379Zm15.017,8.9a4.49,4.49,0,1,0,0,8.98h47.17a4.49,4.49,0,0,0,0-8.98Zm-15,27.615a4.492,4.492,0,0,0-3.308,1.593l-9.9,11.727-6.094-7.447a4.49,4.49,0,1,0-6.95,5.687l12.934,15.807,16.875-19.98a4.491,4.491,0,0,0-3.556-7.388Zm15,8.9a4.49,4.49,0,1,0,0,8.98h47.17a4.49,4.49,0,0,0,0-8.98Zm-15.01,27.6a4.492,4.492,0,0,0-3.3,1.59l-9.9,11.727-6.094-7.447a4.49,4.49,0,1,0-6.95,5.687l12.934,15.81,16.875-19.983a4.491,4.491,0,0,0-3.563-7.384Zm15.01,8.908a4.49,4.49,0,1,0,0,8.98h47.17a4.49,4.49,0,0,0,0-8.98Z" transform="translate(-2997.915 -300.024)"/></svg>