<svg xmlns="http://www.w3.org/2000/svg" width="200" height="181.492" viewBox="0 0 200 181.492"><path d="M2732,1162.92a15.556,15.556,0,0,0-15.442,15.442V1328.97A15.556,15.556,0,0,0,2732,1344.412h169.116a15.556,15.556,0,0,0,15.442-15.442V1178.362a15.556,15.556,0,0,0-15.442-15.442Zm121.682,11.834a6.246,6.246,0,1,1-6.247,6.245,6.246,6.246,0,0,1,6.247-6.245Zm20.647,0a6.246,6.246,0,1,1-6.247,6.246A6.246,6.246,0,0,1,2874.331,1174.754Zm20.647,0a6.246,6.246,0,1,1-6.247,6.246A6.246,6.246,0,0,1,2894.978,1174.754ZM2729.8,1199.431h173.528V1328.97a2.07,2.07,0,0,1-2.206,2.206H2732a2.071,2.071,0,0,1-2.206-2.206Zm24.141,20.015v36.281h41.606v-36.281Zm61.317,2.548v8.206h64.624v-8.206Zm0,21.079v8.206h64.624v-8.206Zm-61.317,32.3v36.281h41.606v-36.281Zm61.317,2.548v8.206h64.624v-8.206Zm0,21.08v8.206h64.624V1299Z" transform="translate(-2716.561 -1162.92)"/></svg>